<svg id="Layer_1" data-name="Layer 1" xmlns="http://www.w3.org/2000/svg" viewBox="0 0 75.53 75.05"><defs><style>.cls-1{fill:#080808;}.cls-2{fill:#010201;}</style></defs><title>assault</title><path class="cls-1" d="M0,36.61,34.69,2c2.62-2.61,3.2-2.6,5.85.05Q56.92,18.37,73.3,34.74c1,1,2.55,2.7,1.77,3.55-.94,1-1.86,2.08-2.84,3.07Q56.42,57.18,40.59,73c-2.73,2.73-3.2,2.74-5.84.1L0,38.29A1.59,1.59,0,0,1,0,36.61ZM73,37.9a3.36,3.36,0,0,0-1.35-2.7L40,3.59c-2-2-2.63-2.07-4.58-.12Q19.45,19.36,3.54,35.26c-1.59,1.59-1.64,2.83,0,4.45q16.08,15.95,32,32c1.56,1.57,2.73,1.43,4.2-.06q16-16,32-32A3.89,3.89,0,0,0,73,37.9Z" transform="translate(0.24)"/><path class="cls-2" d="M70.34,37.39A3.72,3.72,0,0,1,69,39.86q-14.52,14.51-29,29c-1.89,1.88-2.77,1.86-4.67,0q-14.53-14.49-29-29c-1.56-1.55-1.7-2.88-.08-4.49Q20.81,20.75,35.39,6.1c1.61-1.63,2.94-1.54,4.49,0Q54.46,20.76,69.11,35.35A4.6,4.6,0,0,1,70.34,37.39ZM24.14,47.53l.08-2.91H17L35.88,63.48c1.54,1.54,2.75.85,4-.43,3.8-3.84,7.63-7.64,11.45-11.46L59,44h-9.7c-.34-.12-.23,3.41-.23,3.41h0s-7.1-7.66-8.44-9.78h0l9.63-9.32h0V31h0c2.45,0,5.71-.14,8.43-.14C52.08,24.27,45.78,18,39.47,11.67c-1.44-1.44-2.71-1.05-4.06.32-5.23,5.3-10.52,10.54-15.79,15.8-.81.81-1.6,1.63-2.69,2.73h8.12L25,27.31s9.15,9.17,9.69,10.13h0" transform="translate(0.24)"/></svg>