<svg id="Layer_1" data-name="Layer 1" xmlns="http://www.w3.org/2000/svg" viewBox="0 0 79.93 86.6"><defs><style>.cls-1{fill:#060505;}.cls-2{fill:#010101;}.cls-3{fill:#030303;}.cls-4{fill:#040404;}.cls-5{fill:#050505;}</style></defs><title>control</title><path class="cls-1" d="M47.41.76C62.83,3.17,76.31,16.61,79.15,32.4c.12.7.41,1.34.55,2.22a8.62,8.62,0,0,1,.22,2.16c0,.51,0,0,0,.51v4.84a10.9,10.9,0,0,1-.25,2.49c-.1.4-.13.54-.25,1s-.16,1.19-.27,1.81a37,37,0,0,1-4,11.32c-.47.87-.71,2.57-2.56,1.54s-.94-2-.33-3.25c10.89-21.64-.2-46.85-23.32-52.52C34.09.92,21.34,5.13,11.72,16.91S.85,42.06,7.17,56.07c.3.67.67,1.31,1,2a1.57,1.57,0,0,1-.65,2.41c-1.51.93-1.93-.21-2.46-1.16a38.74,38.74,0,0,1-5-21.55A40,40,0,0,1,32.23.73,11.18,11.18,0,0,1,33.54.61,11.61,11.61,0,0,0,35.76.37,14.06,14.06,0,0,1,39.17,0H41a3.91,3.91,0,0,1,1.92.26"/><path class="cls-2" d="M62.44,39.84a4.71,4.71,0,0,1-1.55,2.93q-9,9-18,18c-1.9,1.92-3.71,2-5.67,0Q28.18,51.65,19,42.58c-1.89-1.88-1.72-3.62.07-5.41C25.18,31.11,31.28,25.06,37.32,19c1.85-1.86,3.62-1.85,5.42-.06Q52,28.11,61.19,37.34A4.16,4.16,0,0,1,62.44,39.84Z"/><path class="cls-3" d="M7,42.76C6.93,24,18.71,9.65,34.36,6.73c3.34-.62,4.17.22,4,3.55-.12,2.28-2,1.83-3.13,2.09A27.77,27.77,0,0,0,15.15,28.42,28.22,28.22,0,0,0,59.73,61.09c1.06-.94,1.85-3,4-1.1,2.61,2.29,2.8,2.66.11,5C53,74.28,40.74,76.82,27.64,71.19,14.31,65.46,7.55,54.71,7,42.76Z"/><path class="cls-4" d="M74.66,40.1a30.44,30.44,0,0,1-4.57,16.95c-.67,1.09-.74,3.77-3.34,2.23-2-1.21-3.25-2.21-1.56-5.07a28,28,0,0,0-9.15-38,24.88,24.88,0,0,0-13-4.29c-3.35-.08-2.13-2.32-2.31-3.93C40.53,6,42,6.08,43.36,6.19A33.94,33.94,0,0,1,74.66,40.1Z"/><path class="cls-5" d="M10.44,62.22c.9.09,1.19.91,1.69,1.45C28.1,81,52.35,80.85,68,63.39c.71-.79,1.19-2.3,2.8-1.06s.57,2.26-.26,3.24C66.21,70.69,61,74.79,54.62,76.86A21.64,21.64,0,0,0,44.36,84c-2.87,3.43-3.11,3.42-6.45.36A31.2,31.2,0,0,0,25.7,77.1c-6.62-2-12-6.33-16.44-11.69-.53-.65-1.32-1.35-.5-2.29A2.06,2.06,0,0,1,10.44,62.22Z"/></svg>