<svg id="Layer_1" data-name="Layer 1" xmlns="http://www.w3.org/2000/svg" viewBox="0 0 134.7 89.19"><defs><style>.cls-1{fill:#010101;}.cls-2{fill:#040404;}.cls-3{fill:#020202;}.cls-4{fill:#2b2929;}.cls-5{fill:#282626;}</style></defs><title>escort</title><path class="cls-1" d="M135.69,59.73c-1.71,2.16,0,4.75-1,7.21l-2,1c-.8,1.8,0,3.68-.56,5.42a2.79,2.79,0,0,1-3,1.21c-11-13.43-24.2-13.28-32.59.36a3.34,3.34,0,0,1-4.33-2.14c-.79-1.86-2.27-2.27-4.13-2.26-6.49,0-13,0-19.19,0-1.28.24-.62,1.44-1.33,2.23H46.82c-8.15-10.32-20.29-10.72-31-1.05H8.69c-6.58,0-8.91-3.11-7.13-10h66V25.86c1.94-1.09,3.35-.66,5.05-.54V42.49a2.24,2.24,0,0,0,3,.32V28c2-2,4.53-2.2,6.87-2.57A42.68,42.68,0,0,1,99,26.16a5.28,5.28,0,0,1,3.31,2.24c2.13,3,4.36,6,6.53,9H117l2.64,1.91c5.79.5,13.32-2,14.33,7.67h1.73v3.19c-.47,0-1-.27-1.29.37,0,.92.71.82,1.29.91v1.92c-.66.07-1.29.16-1.12,1.08a.8.8,0,0,0,1.12.19v1.92c-1.21.64-1.35,1.28,0,1.92ZM99.5,30H88a24.93,24.93,0,0,0-.09,7.32c5.17,0,10.14.35,15.44-.2A28.12,28.12,0,0,0,99.5,30Z" transform="translate(-0.99 -1.65)"/><path class="cls-1" d="M16.2,59.59V27.85H65.54V59.59Z" transform="translate(-0.99 -1.65)"/><path class="cls-2" d="M113.23,90.85a17.6,17.6,0,0,1-8.82-2.45c-5.79-3.58-6.76-9.69-2.38-14.9,2.31-2.74,5.59-4.15,8.56-5.93a5.1,5.1,0,0,1,5-.07c3.08,1.81,6.51,3.12,8.94,5.93C129,78.71,128,84.91,122,88.49A18,18,0,0,1,113.23,90.85Zm0-4.92c.43,0,.85,0,1.28,0,3.68-.23,6.21-2.08,6.36-4.64.16-2.78-2.61-5.32-6.2-5.67a10.81,10.81,0,0,0-1.27-.07c-4.16,0-7.36,2.32-7.44,5.42S108.69,85.91,113.21,85.93Zm1.54-13.46c.76-.77,1.53-1.45,1.44-2.65a5.42,5.42,0,0,0-3.4-1.21c-.7.47-1.81.59-2.4,1.63A3.41,3.41,0,0,0,112,72.47ZM103.29,85.92c.67.74,1.11,1.07,1.69.15C104.69,85.38,104.29,85.08,103.29,85.92Zm19.91-.45c-1-.16-1.57-.15-1.49.94C122.42,86.81,122.93,86.79,123.2,85.47Z" transform="translate(-0.99 -1.65)"/><path class="cls-2" d="M31.52,90.85a19,19,0,0,1-7.21-1.66C16.5,85.39,15.36,77.67,22,72.06a35.59,35.59,0,0,1,6.6-4.36,6.52,6.52,0,0,1,5.87,0,39.82,39.82,0,0,1,6.23,3.76c7.49,5.55,6.41,14.42-2.15,18A18.73,18.73,0,0,1,31.52,90.85Zm.36-4.79c1-.18,2.09-.3,3.12-.54,2.22-.52,4-1.65,4.18-4.14s-1.32-4.16-3.59-5.09a9.47,9.47,0,0,0-7.73,0c-2.19,1-3.65,2.6-3.41,5.2s2.07,3.53,4.26,4C29.73,85.81,30.79,85.9,31.88,86.06Zm2.86-16.42c-1.24-.29-2.13-1.15-3.49-1-.82.4-1.9.58-2.42,1.65.64,2.49,2.46,2.45,4.44,2.1A5,5,0,0,0,34.74,69.64Zm5,17c1,.07,1.68.29,2-.75C40.87,85,40.35,85.26,39.75,86.6Zm-16.53,0c.1-1.17-.32-1.4-1.24-1.16C21.85,86.4,22.19,86.72,23.22,86.62Z" transform="translate(-0.99 -1.65)"/><path class="cls-3" d="M88.45,21.78l-10.28-10L88.33,1.65l10.34,9.92Z" transform="translate(-0.99 -1.65)"/><path class="cls-4" d="M117.59,81c-.43,2.15-2,2.82-3.71,3s-3.44-.24-4.36-1.93c-.73-1.33,0-2.42,1-3.32a3.91,3.91,0,0,1,4.93-.58A4.2,4.2,0,0,1,117.59,81Zm-7.06.56c2.18,1.69,4,1.7,5.81-.26a2.83,2.83,0,0,0-3-2.41C111.79,78.87,110.83,79.62,110.53,81.52Z" transform="translate(-0.99 -1.65)"/><path class="cls-5" d="M36.18,81.16c-2.71,3.6-5.2,3.77-8.4.78-.43-2.45,1-3.83,3.13-4.28C33.61,77.08,35.24,78.6,36.18,81.16ZM29,81.53c2.06,1.61,4,1.84,5.8-.38a3,3,0,0,0-3.42-2.27A2.52,2.52,0,0,0,29,81.53Z" transform="translate(-0.99 -1.65)"/></svg>