<svg id="Layer_1" data-name="Layer 1" xmlns="http://www.w3.org/2000/svg" viewBox="0 0 148.53 107.19"><defs><style>.cls-1{fill:none;}.cls-2{fill:#020202;}.cls-3{fill:#e6e5e5;}.cls-4{fill:#010101;}.cls-5{fill:#030303;}.cls-6{fill:#060505;}.cls-7{fill:#060606;}.cls-8{fill:#fff;}.cls-9{fill:#f9f8f8;}.cls-10{fill:#eeeded;}.cls-11{fill:#b9b6b6;}.cls-12{fill:#2d2b2b;}.cls-13{fill:#292727;}.cls-14{fill:#dddcdc;}</style></defs><title>hybrid</title><path class="cls-1" d="M54.65,107.14c-17.44,0-34.89,0-52.33,0-1.95,0-2.33-.4-2.32-2.33C.09,86.49.06,68.11.06,49.74a.66.66,0,0,1,.94.08c1.29,3.86,1.58,8,3.35,11.72.53,1.11.65,2.5,2.41,3.29-8.13-20.33-4-36.7,15.56-47.21,12.13-6.51,30.59-4.17,42.57,12.28a4.37,4.37,0,0,0-1.41-3.47c-7.33-9.28-17-13.26-28.74-13.15C19.2,13.42,4.16,26.62,2,42.13a7.31,7.31,0,0,1-1,3.33.65.65,0,0,1-.94.08c0-14.47,0-28.93,0-43.4C0,.39.41,0,2.15,0Q74.26.09,146.34,0c1.75,0,2.15.39,2.15,2.14q-.09,51.45,0,102.89c0,2.41-1,2.12-2.54,2.12q-45,0-89.94,0c1.15-6.54,3.46-12.76,5.31-19.1C69.17,61.18,77.18,34.39,85.09,7.56a11.37,11.37,0,0,0,.57-2.37,2.07,2.07,0,0,0-1.43-2.48,2.2,2.2,0,0,0-2.7,1,12.27,12.27,0,0,0-1.16,2.92q-10,32.39-20.07,64.78c-2.81,9.13-5.55,18.29-8.54,27.36-1.43,4.35-1.43,4.36,2.4,7.13A1.07,1.07,0,0,1,54.65,107.14Z"/><path class="cls-2" d="M54.65,107.14c-5.48-2.74-5.48-2.74-3.55-9Q65.52,51.53,79.94,4.91c.6-1.94.78-4.2,4-3.48,2.94.66,3.4,2,2.58,4.71Q76.29,40.37,66.25,74.67,62,89,57.76,103.42a12.1,12.1,0,0,1-1.71,3.72Z"/><path class="cls-3" d="M.64,49.75l-.3,0-.28,0v-4.2a4,4,0,0,1,.6,0A2.8,2.8,0,0,1,.64,49.75Z"/><path class="cls-4" d="M96.35,21.87a66.11,66.11,0,0,1,10.46,1.3A5.83,5.83,0,0,1,111,25.94c.79,1.28,1.92,2.37,2.64,3.69,2.45,4.42,5.71,5.79,11.09,6.15a116.69,116.69,0,0,1,15.1,2.3,6.06,6.06,0,0,1,4.49,4.5c.43,1.44.3,3.3,2.5,3.58.28,0,.78.9.67,1.08-.92,1.57-1.73,3.1-.42,4.85-2.49,1.21,1.51,3.94-1.18,5.11,1.65,2.55.49,5.45,0,7.78-.64,3.21-2.87,6-3.41,9.57-.19,1.24-2.81,1.88-3.8-.32-3.53-7.9-14.34-10.68-23.09-8.41a14.27,14.27,0,0,0-9.72,7.81c-1.5,3.1-4,3.46-5.49.47C99,71.31,97,71,94.44,71c-5.13,0-10.26-.07-15.39,0-2.07,0-4.65-1.08-5.73,2.08-.22.64-1.33.56-1.93.29-1-.44-.22-1.18,0-1.76,2.67-9.26,4.28-19,8.44-27.58,2.78-5.7,1.82-10.88,2.2-16.3.18-2.61,1.1-3.79,3.41-4.39A44.27,44.27,0,0,1,96.35,21.87Z"/><path class="cls-4" d="M36.31,28c1.29-.16,2.06.78,2.88,1.59,5.12,5.1,10.19,10.25,15.35,15.3,2.05,2,2.34,3.71.11,5.86C49.37,55.86,44.2,61.07,39.08,66.33c-2,2.08-3.63,1.88-5.57-.11Q26,58.47,18.18,50.9c-2.08-2-2.4-3.73-.19-5.87,5.25-5.13,10.4-10.37,15.59-15.55A3.75,3.75,0,0,1,36.31,28Z"/><path class="cls-5" d="M56.54,64.59c-1.88,9.36-6.82,13-17.66,13.72C23.53,79.32,9.1,67.69,7.13,52.74,5,36.6,15.21,21.64,30.63,18.46c1.37-.29,3.4-1.4,4.11,1.05.58,2,.23,3.24-2.43,3.82C20.1,26,11.83,36,11.91,47.81c.07,10.35,4.73,18.27,14,22.78s18.3,3.46,26.63-2.71C53.74,67,54.84,66,56.54,64.59Z"/><path class="cls-5" d="M122.7,93a19.59,19.59,0,0,1-9.34-2.57c-6.42-3.87-7.53-10.55-2.68-16.23,2.55-3,6.15-4.46,9.4-6.42a4.48,4.48,0,0,1,4.08-.29c4.48,2.13,9.16,4.06,12,8.56s2.19,9.23-1.88,12.83C130.93,91.83,126.94,92.84,122.7,93Z"/><path class="cls-6" d="M.64,49.75l0-4.22c1.53-15.62,11.63-28,26.07-32A36,36,0,0,1,64.94,26.74c1.41,1.9,1.81,3.57.28,5.83a38.65,38.65,0,0,0-7.44-9.2A32.63,32.63,0,0,0,7.19,62.69a10,10,0,0,0,.52.9c.58,1,1,1.85-.32,2.62S5.52,66,5,65.05A36.68,36.68,0,0,1,.64,49.75Z"/><path class="cls-7" d="M37.54,89.6a4.54,4.54,0,0,1-2.74-1.7A27.5,27.5,0,0,0,23.34,81c-5.63-1.74-10.24-5.4-14.08-9.92-.71-.83-1.95-1.68-.48-2.85s2,.13,2.8,1c10.82,11.61,24.33,14.34,39,7.93.74-.32,1.6-1.32,2.34,0s-.12,1.95-.9,2.68a.84.84,0,0,1-.32.14A23.65,23.65,0,0,0,38.6,89C38.36,89.32,37.83,89.44,37.54,89.6Z"/><path class="cls-7" d="M62,43.83C60.44,37.21,57.47,32,52.35,28.05c-3.78-2.87-8-4.87-12.76-4.95-3.07-.05-2.6-1.91-2.57-3.74,0-2.44,1.78-1.58,3-1.45A30.94,30.94,0,0,1,60,28.26C64.17,32.8,65.74,37.58,62,43.83Z"/><path class="cls-8" d="M103.32,35.52H99.84c-4.72,0-4.59,0-4.74-4.68-.08-2.63.54-4,3.45-3.58a30.36,30.36,0,0,0,4.16,0c5.7,0,6.27.41,8.46,5.53.75,1.76.39,2.68-1.6,2.71S105.4,35.52,103.32,35.52Z"/><path class="cls-9" d="M123.27,87.65c-5.58,0-8.6-2-8.46-5.36s4.11-6.17,8.61-5.86a11,11,0,0,1,2.73.56c2.74,1,4.85,2.68,4.66,5.77-.21,3.25-2.8,4.29-5.6,4.78A13.07,13.07,0,0,1,123.27,87.65Z"/><path class="cls-10" d="M122.62,73.37a2.44,2.44,0,0,1-2.83-2.17c-.16-1.81,1.71-2,3-2.07s3,.19,3.1,1.54S124.69,73.38,122.62,73.37Z"/><path class="cls-11" d="M133.1,88.64c-1,0-1.45-.11-1.48-.65a1,1,0,0,1,1-1,1.2,1.2,0,0,1,.84.82A1.35,1.35,0,0,1,133.1,88.64Z"/><path class="cls-8" d="M113.91,88a5.23,5.23,0,0,1-1,.25c-.56,0-.89-.26-.58-.81a.93.93,0,0,1,.84-.24C113.42,87.3,113.61,87.66,113.91,88Z"/><path class="cls-12" d="M119.78,84.57c-1.91-.57-1.8-2.07-1.15-3.32a4.7,4.7,0,0,1,4.52-2.7,3,3,0,0,1,2.38,1.21,1.57,1.57,0,0,1-1,1c-1.93.08-3.8.22-3.8,2.86A1.15,1.15,0,0,1,119.78,84.57Z"/><path class="cls-13" d="M124.65,80.41l.88-.65c2.86,2.89,2.57,3.91-1.6,5.57a1.15,1.15,0,0,1-.24-1.3C124.78,83,124.78,81.73,124.65,80.41Z"/><path class="cls-4" d="M123.93,84.17v1.16a4.55,4.55,0,0,1-4.15-.76l.82-.62A2.24,2.24,0,0,1,123.93,84.17Z"/><path class="cls-14" d="M123.93,84.17,120.6,84c-.87-.9-1.28-1.84-.22-2.9a3.28,3.28,0,0,1,4.27-.64C126.48,82.06,126.5,83.36,123.93,84.17Z"/></svg>